<?xml version="1.0" encoding="UTF-8"?><svg id="Layer_1" xmlns="http://www.w3.org/2000/svg" viewBox="0 0 141.89 33.84"><defs><style>.cls-1{fill:#00a66e;}</style></defs><path d="M33.32,31.59h-7.87l-2.41-5.81h-13.11l-2.19,5.81H0L11.82,2.27h8.47l13.03,29.33ZM16.17,9.27l-4.3,11.39h9.03l-4.73-11.39Z"/><path d="M61.91,2.27h6.36v29.33h-7.31V13.27l-7.91,9.2h-1.12l-7.91-9.2v18.32h-7.31V2.27h6.36l9.42,10.88,9.42-10.88Z"/><path d="M86.8,2.27c10.71,0,16.21,6.66,16.21,14.71s-5.33,14.62-17.03,14.62h-12.13V2.27h12.94ZM81.16,26.22h4.77c7.35,0,9.55-4.99,9.55-9.29,0-5.03-2.71-9.29-9.63-9.29h-4.69v18.58Z"/><polygon class="cls-1" points="132.67 9.22 117.55 9.22 108.33 0 141.89 0 141.89 33.56 132.67 24.34 132.67 9.22"/><polygon class="cls-1" points="117.54 24.35 117.54 11.07 108.05 20.56 108.05 33.84 121.33 33.84 130.82 24.35 117.54 24.35"/></svg>