<svg id="Layer_1" data-name="Layer 1" xmlns="http://www.w3.org/2000/svg" viewBox="0 0 76.53 82"><title>AORUS logo - Brandlogos.net</title><path d="M380,413.91c.16.32,0,.8,0,1l-3.22,8.2a3.65,3.65,0,0,1-2.57,1.77h-8c-1,0-1.45-.8-1-1.93.16-.48.48-1.13.64-1.61.32-1,.64-1.77,1-2.73.32-.8.64-1.61,1-2.57.16-.48.32-.8.48-1.29a2.63,2.63,0,0,1,2.41-1.77h8.2A7,7,0,0,1,380,413.91ZM376.44,415v-.16c0-.32-.16-.32-.32-.32h-3.54a.82.82,0,0,0-.8.64l-3.22,8.2v.16c0,.32.16.32.32.32h3.54a.82.82,0,0,0,.8-.64Z" transform="translate(-345.73 -343)"/><path d="M387.7,420.5h0l1.13,2.73a.74.74,0,0,0,.8.48h1c.16,0,.16,0,.32.16a3.8,3.8,0,0,0,1.45,1V425h-5.79a.88.88,0,0,1-.8-.48l-1.61-3.86c-.16-.32-.32-.48-.64-.48s-.48.16-.64.64l-1.45,3.54c0,.48-.32.64-.8.64h-2.41c-.32,0-.32-.16-.32-.32v-.16l3.22-8.2a1.07,1.07,0,0,1,.8-.64h2.41c.32,0,.32.16.32.32v.16l-.8,2.41v.16c0,.32.16.32.32.32h3.54a.82.82,0,0,0,.8-.64l1.45-3.54v-.16c0-.32-.16-.32-.32-.32h-7.4c-.16,0-.16,0-.32-.16a3.87,3.87,0,0,0-1.29-1v-.16h11.74a.88.88,0,0,1,.8.48,1.26,1.26,0,0,1,.16,1.29l-1.29,3.7a3.15,3.15,0,0,1-1.45,1.45,3,3,0,0,1-1.13.32H388C387.86,420.34,387.7,420.34,387.7,420.5Z" transform="translate(-345.73 -343)"/><path d="M422.27,413.26c-.32.32-.8.48-1.13.8l-.16.16a.59.59,0,0,1-.48.16h-7.07a.82.82,0,0,0-.8.64l-1.45,3.54v.16c0,.32.16.32.32.32h5.95a1.32,1.32,0,0,1,1.13,1.77l-1,2.41a2.79,2.79,0,0,1-2.41,1.77H404.42v-.16a14.83,14.83,0,0,0,1.29-.8l.16-.16a.59.59,0,0,1,.48-.16h6.91a.82.82,0,0,0,.8-.64l1-2.41v-.16c0-.32-.16-.32-.32-.32h-5.95a1.25,1.25,0,0,1-1.13-1.77l1.45-3.54a2.71,2.71,0,0,1,2.41-1.77H421A6,6,0,0,0,422.27,413.26Z" transform="translate(-345.73 -343)"/><path d="M407.8,413.26H402v.16a3.7,3.7,0,0,1,2.09,1.77l-3.22,8a1.07,1.07,0,0,1-.8.64h-3.54c-.32,0-.32-.16-.32-.32v-.16l3.7-9.49v-.16c0-.32-.16-.32-.32-.32h-5.79v.16a3.1,3.1,0,0,1,2.09,1.93l-3.22,8c-.32.48.16,1.45,1.13,1.45H402a2.24,2.24,0,0,0,1.45-.48,2.73,2.73,0,0,0,1-1.29l3.7-9.49v-.16C408.28,413.26,408.12,413.26,407.8,413.26Z" transform="translate(-345.73 -343)"/><path d="M366.47,413.26h-5.95a1.74,1.74,0,0,0-1.13.48l-11.25,9.33-.8.64-.48.48a4,4,0,0,1-1.13.64V425h3.05a1.74,1.74,0,0,0,1.13-.48l4.5-3.86a1.74,1.74,0,0,1,1.13-.48H360c.32,0,.32.16.32.32v.16l-.8,2.09a5.2,5.2,0,0,1-2.25,1.93v.16h4.5a.82.82,0,0,0,.8-.64l4.18-10.61v-.16C366.8,413.26,366.64,413.26,366.47,413.26Zm-4,1.61L361,418.41a1.07,1.07,0,0,1-.8.64h-3.38c-.16,0-.32,0-.32-.16s0-.16.16-.32l4.5-3.86a1.39,1.39,0,0,1,1-.48.35.35,0,0,1,.32.32A.22.22,0,0,1,362.45,414.87Z" transform="translate(-345.73 -343)"/><path d="M422.27,345.09a2.13,2.13,0,0,0-2.09-2.09,1.45,1.45,0,0,0-.8.16l-8.68,3.54-5.15,5.95L399.76,351l10.93-4.34-5.63-1.45L355.86,365v.48a12,12,0,0,1,5.31,1.13c-.48.32-9,3.7-9,3.7a.5.5,0,0,0,.16.32,19.6,19.6,0,0,1,13,2.73c-1.13.48-7.4,3.05-7.4,3.05a.5.5,0,0,0,.16.32,14.92,14.92,0,0,1,8,2.57,95.09,95.09,0,0,1-.48,19.78l.32.32,25.73-25.73c15.6-15.76,23.47-24,26.69-26.37a.59.59,0,0,1,.48-.16c.48,0,.64.32.8.8a35.17,35.17,0,0,1,0,4.18l2.41-6.11A2,2,0,0,0,422.27,345.09Z" transform="translate(-345.73 -343)"/><path d="M370.66,396.38l19.13-19.13-5.31,16.24,2.89,2.09,20.74-10.93L402,382.07l9.65-1.93,3.7,5.47s-31.19,25.24-31.67,25.56a59,59,0,0,1-14-9.81C370.17,399.27,370.66,396.38,370.66,396.38Z" transform="translate(-345.73 -343)"/></svg>