<svg xmlns="http://www.w3.org/2000/svg" viewBox="0 0 293.5 52.9"><title>ROG logo</title><path d="M397.83,527.73c1.17.73,2.35,1.47,3.52,2.05,12.62,5.58,31.26,9,34.78,7.78,9.83-3.23,20.84-23.92,24.21-33.46,0,0-10.27,4.11-20.69,9-8.66,4.11-18.2,8.81-18.2,8.81l24.21-7.34s-6.46,15.26-15,17-23.48-4.26-23.48-4.26c1.17-1,17-12.62,54-27.74a7.68,7.68,0,0,0,2.94-5,75.73,75.73,0,0,0-24.51,7C424.1,509,397.83,527.73,397.83,527.73Zm-27-7.48c2.64,3.38,13.5,6.16,15,6.46C379,522,365.25,509.1,365.25,509.1A60.91,60.91,0,0,0,370.83,520.25Z" transform="translate(-365.25 -485.55)" style="fill:#ff0029"/><path d="M402.82,518.64c7.19-5.28,32.73-26.86,57.38-32.73,0,0-12.91-2.05-31.26,3.67-6.6,2.05-16.14,11.3-33.9,28.47-2.35,1.32-11-3.67-16-6,0,0,8.22,13.06,11.15,16.88,4.4,6,12.47,9.54,12.47,9.54-.73-.73-6.31-6.6-7.92-10C393.72,526.85,394.89,524.51,402.82,518.64ZM552.94,495h-4.4v13.06h-8.22V495h-4.4v15.26h17Zm36.69,12.91h-11V495h-4.55v15.26h13.5ZM591.54,495h4.55v15.26h-4.55Zm55,2.2H656.7l2.05-2.2H642v15.26h4.55v-7.48h9.83l1.76-2.35H646.57Zm-124.88,8.07h12.18v-9.1a1.13,1.13,0,0,0-1-1.17h-15.7v15.12h4.55Zm0-8.07H529c.15,0,.44,0,.44.73v5.14h-7.78Zm50,3.67h-1.32v-4.4c0-.88-.44-1.47-1.17-1.47H555v15.26h16.58l.15-9.39Zm-4.55,7h-7.63v-4.84h7.63Zm0-7h-7.63v-3.67h7.19c.44,0,.44.59.44.73Zm-54.44-3.67,2.35-2.2h-17v15.12h17l-2.35-2.2H502.61v-4.11h11.45v-2.49H502.61v-4.11Zm90.25,0h10.27l2.2-2.2h-17v15.12h14.82l2.2-2.2H603ZM591.25,521l1.91-2.2H575.84V527h12.47v4.55H575.25L578,533.9h15v-9.25H580.39V521Zm-78.36-2.2H496.74V533.9h4.55v-6.46h8.07v6.46h4.55V520.1A1.14,1.14,0,0,0,512.88,518.78Zm-3.52,6.46h-7.92V521h7.48c.44,0,.44.44.44.73ZM551.92,521l2.35-2.2H537.09V533.9h17.17l-2.35-2.2H541.64v-4.11h11.59v-2.49H541.64V521Zm-59.87.15,2.35-2.35h-17.9V533.9H493.8v-8.22h-4.55v6h-8.07V521.13Zm24.36-2.35V534h4.7v-8.81l4.4,3.08,4.55-3.08V534h4.55V518.78l-9.1,6Zm56.94,8.66V520.1a1.33,1.33,0,0,0-1.17-1.47H555.73V533.9h4.55V521h7.92c.44,0,.44.44.44.73v2.94h-7.48l8.22,9.25h5.43l-5.72-6.46Zm-77.92-21.72v-9.25c0-.73,0-1.47-.88-1.47H476.49v10.57l4.7,5.14v-13.5H490c.59,0,.73.15.73.73v4.84h-7.78l12.47,13.06v-5.14l-4.7-5.14h4.7ZM638.35,495H622.94v11l3.67,4.26h12.77V496.18A1.13,1.13,0,0,0,638.35,495Zm-3.52,12.91H630L627.49,505v-7.78h7.34Z" transform="translate(-365.25 -485.55)" style="fill:#ff0029"/></svg>